<svg id="add8ed60-202e-4696-b4f6-c41f8fd7a84c" data-name="Layer 1" xmlns="http://www.w3.org/2000/svg" viewBox="0 0 579.33 668.84"><defs><style>.\36 20ef8d7-2463-4a0f-90fc-1a0758d0b8aa{fill:#9b9b9b;stroke:#7f7f7f;stroke-miterlimit:10;}</style></defs><title>logo</title><path class="620ef8d7-2463-4a0f-90fc-1a0758d0b8aa" d="M800.7,160.34s-19.25-11.39-66.51,17.9c0,0-87.51,47.17-106.76,125.26S601.17,419,601.17,419s-5.34,25.83-13.62,63.44H414.18c17.85-83.57,32.88-159.27,34.56-168.3a7.37,7.37,0,0,1,.61-1.86c3.12-6.58,20.24-47.14,88.82-90.13,65.55-41.1,36.75-56.94,36.75-56.94s-19.25-11.39-66.51,17.9c0,0-87.51,47.17-106.76,125.26s-26.26,115.51-26.26,115.51-26.25,126.89-52.5,227.75-73.51,126.9-73.51,126.9-35,17.89-14,42.29c20.85,24.23,90-44.56,91-45.54l0,0c.43-.63,17.74-21.87,35-73.19C372.13,670.15,389,598.2,405,524.75H578.1c-8.74,38.48-19.09,82.26-29.43,122-26.26,100.87-73.51,126.9-73.51,126.9s-35,17.89-14,42.29c20.85,24.23,90-44.56,91-45.54l0,0c.43-.63,17.74-21.87,35-73.2,25.16-74.81,83.93-369.55,87.35-387.92a7.37,7.37,0,0,1,.61-1.86c3.12-6.58,20.24-47.14,88.82-90.13C829.5,176.18,800.7,160.34,800.7,160.34Z" transform="translate(-228.17 -157.66)"/></svg>