<?xml version="1.0"?>
<svg xmlns="http://www.w3.org/2000/svg" height="512px" viewBox="0 -79 512 512" width="512px"><path d="m390.011719 0c-36 0-68.351563 15.519531-90.679688 40.199219-19.632812-15.75-44.59375-25.183594-71.777343-25.183594-41.84375 0-78.4375 22.351563-98.394532 55.707031-11.675781-5.445312-24.699218-8.488281-38.441406-8.488281-50.105469-.003906-90.71875 40.414063-90.71875 90.269531 0 49.855469 40.613281 90.273438 90.71875 90.273438h24.679688c-6.140626-17.148438-1.625-36.089844 11.730468-48.640625l108.292969-101.765625c5.785156-5.433594 13.179687-8.152344 20.578125-8.152344s14.792969 2.71875 20.578125 8.152344l108.292969 101.765625c13.308594 12.507812 17.84375 31.355469 11.796875 48.457031 64.277343-3.441406 115.332031-56.386719 115.332031-121.207031 0-67.039063-54.613281-121.386719-121.988281-121.386719zm0 0" fill="#FFFFFF"/><path d="m263.640625 121.449219c-4.292969-4.039063-10.984375-4.039063-15.28125 0l-100.652344 94.585937c-9.582031 9.003906-4.332031 24.582032 7.816407 26.738282.921874.164062 1.878906.261718 2.878906.261718h39.964844v91.613282c0 10.484374 8.5 18.980468 18.980468 18.980468h77.304688c10.484375 0 18.980468-8.5 18.980468-18.980468v-91.613282h39.964844c1 0 1.960938-.097656 2.882813-.261718 12.148437-2.160157 17.394531-17.734376 7.8125-26.742188zm0 0" fill="#FFFFFF"/></svg>
